<svg width="127" height="22" viewBox="0 0 127 22" fill="none" xmlns="http://www.w3.org/2000/svg">
<mask id="mask0_126_1067" style="mask-type:luminance" maskUnits="userSpaceOnUse" x="22" y="3" width="84" height="16">
<path d="M106 3H22V18.04H106V3Z" fill="white"/>
</mask>
<g mask="url(#mask0_126_1067)">
<path d="M51.4604 3.91C52.6104 4.52 53.4904 5.38 54.1204 6.5C54.7504 7.62 55.0604 8.92 55.0604 10.4C55.0604 11.88 54.7504 13.18 54.1204 14.3C53.4904 15.42 52.6104 16.28 51.4604 16.89C50.3104 17.5 48.9804 17.8 47.4604 17.8H41.4004V3H47.4604C48.9804 3 50.3104 3.3 51.4604 3.91ZM50.4604 13.58C51.2204 12.79 51.6004 11.73 51.6004 10.39C51.6004 9.5 51.4304 8.73 51.0804 8.08C50.7304 7.43 50.2504 6.92 49.6204 6.56C48.9904 6.2 48.2704 6.02 47.4504 6.02H44.8504V14.76H47.4504C48.6904 14.76 49.6904 14.37 50.4504 13.58H50.4604Z" fill="white"/>
<path d="M68.0102 7.34965V17.7896H65.1402L64.9302 16.5396C64.0402 17.5096 62.8902 17.9996 61.4702 17.9996C60.5002 17.9996 59.6402 17.7696 58.8802 17.3096C58.1302 16.8496 57.5402 16.2096 57.1202 15.3896C56.7002 14.5696 56.4902 13.6296 56.4902 12.5696C56.4902 11.5096 56.7002 10.5696 57.1202 9.74965C57.5402 8.92965 58.1302 8.28965 58.8802 7.82965C59.6302 7.36965 60.5002 7.13965 61.4702 7.13965C62.1702 7.13965 62.8202 7.25965 63.4102 7.50965C64.0002 7.75965 64.5102 8.10965 64.9302 8.57965L65.1402 7.34965H68.0102ZM64.0402 14.4796C64.5002 13.9896 64.7402 13.3596 64.7402 12.5696C64.7402 11.7796 64.5102 11.1396 64.0402 10.6596C63.5802 10.1696 62.9802 9.92965 62.2402 9.92965C61.5002 9.92965 60.9102 10.1796 60.4602 10.6696C60.0002 11.1596 59.7702 11.7996 59.7702 12.5696C59.7702 13.3396 60.0002 13.9796 60.4602 14.4696C60.9202 14.9596 61.5102 15.2096 62.2402 15.2096C62.9702 15.2096 63.5702 14.9696 64.0402 14.4796Z" fill="white"/>
<path d="M77.5497 7.75965C78.3397 8.18965 78.9397 8.78965 79.3597 9.57965C79.7797 10.3596 79.9897 11.2696 79.9897 12.3196C79.9897 12.6596 79.9597 13.0696 79.8897 13.5696H72.6297C72.7197 14.1096 72.9997 14.5396 73.4497 14.8696C73.8997 15.1996 74.4797 15.3696 75.1897 15.3696C75.6797 15.3696 76.1597 15.2896 76.6297 15.1396C77.0997 14.9896 77.4997 14.7696 77.8297 14.4896L79.4697 16.3496C78.9097 16.8996 78.2497 17.3196 77.4797 17.6196C76.7097 17.9196 75.8997 18.0596 75.0297 18.0596C73.8797 18.0596 72.8897 17.8396 72.0497 17.3896C71.2097 16.9496 70.5597 16.3196 70.1097 15.4996C69.6597 14.6796 69.4297 13.7196 69.4297 12.6096C69.4297 11.4996 69.6497 10.5896 70.0997 9.75965C70.5497 8.92965 71.1697 8.27965 71.9697 7.82965C72.7697 7.36965 73.6997 7.13965 74.7497 7.13965C75.7997 7.13965 76.7597 7.34965 77.5497 7.77965V7.75965ZM73.3197 10.2396C72.9297 10.5796 72.6997 11.0496 72.6497 11.6496H77.0097C76.9697 11.0396 76.7597 10.5696 76.3797 10.2396C75.9997 9.89965 75.4897 9.72965 74.8497 9.72965C74.2097 9.72965 73.7097 9.89965 73.3197 10.2396Z" fill="white"/>
<path d="M91.8098 8.41C92.5998 9.27 92.9898 10.43 92.9898 11.9V17.79H89.5198V12.09C89.5198 11.41 89.3498 10.89 88.9998 10.51C88.6498 10.13 88.1698 9.94 87.5498 9.94C86.8698 9.94 86.3198 10.16 85.8998 10.59C85.4798 11.03 85.2698 11.6 85.2698 12.3V17.79H81.7998V3H85.2698V8.49C86.1098 7.58 87.2198 7.12 88.6098 7.12C89.9998 7.12 91.0198 7.55 91.8098 8.41Z" fill="white"/>
<path d="M106 17.79H101.66L98.2898 13.65V17.79H94.7998V3H98.2898V11.3L101.35 7.35H105.35L101.37 12.29L106 17.78V17.79Z" fill="white"/>
<path d="M27.01 8.00977H22V18.0398H27.01C29.78 18.0398 32.02 15.7998 32.02 13.0298H27.01V8.01976V8.00977Z" fill="#333333"/>
<path d="M32.0295 3H27.0195V8.01C29.7895 8.01 32.0295 10.25 32.0295 13.02C34.7995 13.02 37.0395 10.78 37.0395 8.01C37.0395 5.24 34.7995 3 32.0295 3Z" fill="#7AA874"/>
</g>
</svg>
