<svg width="127" height="22" viewBox="0 0 127 22" fill="none" xmlns="http://www.w3.org/2000/svg">
<g clip-path="url(#clip0_102_20)">
<path d="M51.46 3.91C52.61 4.52 53.49 5.38 54.12 6.5C54.75 7.62 55.06 8.92 55.06 10.4C55.06 11.88 54.75 13.18 54.12 14.3C53.49 15.42 52.61 16.28 51.46 16.89C50.31 17.5 48.98 17.8 47.46 17.8H41.4V3H47.46C48.98 3 50.31 3.3 51.46 3.91ZM50.46 13.58C51.22 12.79 51.6 11.73 51.6 10.39C51.6 9.5 51.43 8.73 51.08 8.08C50.73 7.43 50.25 6.92 49.62 6.56C48.99 6.2 48.27 6.02 47.45 6.02H44.85V14.76H47.45C48.69 14.76 49.69 14.37 50.45 13.58H50.46Z" fill="#221F20"/>
<path d="M68.01 7.34965V17.7896H65.14L64.93 16.5396C64.04 17.5096 62.89 17.9996 61.47 17.9996C60.5 17.9996 59.64 17.7696 58.88 17.3096C58.13 16.8496 57.54 16.2096 57.12 15.3896C56.7 14.5696 56.49 13.6296 56.49 12.5696C56.49 11.5096 56.7 10.5696 57.12 9.74965C57.54 8.92965 58.13 8.28965 58.88 7.82965C59.63 7.36965 60.5 7.13965 61.47 7.13965C62.17 7.13965 62.82 7.25965 63.41 7.50965C64 7.75965 64.51 8.10965 64.93 8.57965L65.14 7.34965H68.01ZM64.04 14.4796C64.5 13.9896 64.74 13.3596 64.74 12.5696C64.74 11.7796 64.51 11.1396 64.04 10.6596C63.58 10.1696 62.98 9.92965 62.24 9.92965C61.5 9.92965 60.91 10.1796 60.46 10.6696C60 11.1596 59.77 11.7996 59.77 12.5696C59.77 13.3396 60 13.9796 60.46 14.4696C60.92 14.9596 61.51 15.2096 62.24 15.2096C62.97 15.2096 63.57 14.9696 64.04 14.4796Z" fill="#221F20"/>
<path d="M77.55 7.75965C78.34 8.18965 78.94 8.78965 79.36 9.57965C79.78 10.3596 79.99 11.2696 79.99 12.3196C79.99 12.6596 79.96 13.0696 79.89 13.5696H72.63C72.72 14.1096 73 14.5396 73.45 14.8696C73.9 15.1996 74.48 15.3696 75.19 15.3696C75.68 15.3696 76.16 15.2896 76.63 15.1396C77.1 14.9896 77.5 14.7696 77.83 14.4896L79.47 16.3496C78.91 16.8996 78.25 17.3196 77.48 17.6196C76.71 17.9196 75.9 18.0596 75.03 18.0596C73.88 18.0596 72.89 17.8396 72.05 17.3896C71.21 16.9496 70.56 16.3196 70.11 15.4996C69.66 14.6796 69.43 13.7196 69.43 12.6096C69.43 11.4996 69.65 10.5896 70.1 9.75965C70.55 8.92965 71.17 8.27965 71.97 7.82965C72.77 7.36965 73.7 7.13965 74.75 7.13965C75.8 7.13965 76.76 7.34965 77.55 7.77965V7.75965ZM73.32 10.2396C72.93 10.5796 72.7 11.0496 72.65 11.6496H77.01C76.97 11.0396 76.76 10.5696 76.38 10.2396C76 9.89965 75.49 9.72965 74.85 9.72965C74.21 9.72965 73.71 9.89965 73.32 10.2396Z" fill="#221F20"/>
<path d="M91.81 8.41C92.6 9.27 92.99 10.43 92.99 11.9V17.79H89.52V12.09C89.52 11.41 89.35 10.89 89 10.51C88.65 10.13 88.17 9.94 87.55 9.94C86.87 9.94 86.32 10.16 85.9 10.59C85.48 11.03 85.27 11.6 85.27 12.3V17.79H81.8V3H85.27V8.49C86.11 7.58 87.22 7.12 88.61 7.12C90 7.12 91.02 7.55 91.81 8.41Z" fill="#221F20"/>
<path d="M106 17.79H101.66L98.29 13.65V17.79H94.8V3H98.29V11.3L101.35 7.35H105.35L101.37 12.29L106 17.78V17.79Z" fill="#221F20"/>
<path d="M27.01 8.00977H22V18.0398H27.01C29.78 18.0398 32.02 15.7998 32.02 13.0298H27.01V8.01977V8.00977Z" fill="#333333"/>
<path d="M32.03 3H27.02V8.01C29.79 8.01 32.03 10.25 32.03 13.02C34.8 13.02 37.04 10.78 37.04 8.01C37.04 5.24 34.8 3 32.03 3Z" fill="#7AA874"/>
</g>
<defs>
<clipPath id="clip0_102_20">
<rect width="84" height="15.04" fill="white" transform="translate(22 3)"/>
</clipPath>
</defs>
</svg>
